<?xml version="1.0" encoding="iso-8859-1"?>
<!-- Generator: Adobe Illustrator 19.0.0, SVG Export Plug-In . SVG Version: 6.00 Build 0)  -->
<svg version="1.1" id="Capa_1" xmlns="http://www.w3.org/2000/svg" xmlns:xlink="http://www.w3.org/1999/xlink" x="0px" y="0px"
	 viewBox="0 0 512 512" style="enable-background:new 0 0 512 512;" xml:space="preserve">
<path style="fill:#F2F2F2;" d="M480,0H32C13.867,0,0,13.867,0,32v448c0,18.133,13.867,32,32,32h448c18.133,0,32-13.867,32-32V32
	C512,13.867,498.133,0,480,0z"/>
<path style="fill:#FF7058;" d="M512,32v148.267H0V32C0,13.867,13.867,0,32,0h448C498.133,0,512,13.867,512,32z"/>
<g>
	<circle style="fill:#FFFFFF;" cx="109.867" cy="89.6" r="34.133"/>
	<circle style="fill:#FFFFFF;" cx="402.133" cy="89.6" r="34.133"/>
</g>
<path style="fill:#FFD15C;" d="M387.2,110.933H124.8c-11.733,0-21.333-9.6-21.333-21.333s9.6-21.333,21.333-21.333h262.4
	c11.733,0,21.333,9.6,21.333,21.333S398.933,110.933,387.2,110.933z"/>
<g>
	<path style="fill:#54C0EB;" d="M113.067,297.6v-34.133h108.8V291.2L185.6,332.8c13.867,2.133,25.6,8.533,33.067,18.133
		S230.4,371.2,230.4,384c0,18.133-6.4,33.067-19.2,43.733c-12.8,10.667-28.8,16-48,16s-39.467-7.467-59.733-21.333l16-32
		c17.067,11.733,32,18.133,44.8,18.133c7.467,0,14.933-2.133,19.2-5.333c5.333-4.267,7.467-9.6,7.467-17.067
		c0-7.467-3.2-12.8-8.533-17.067c-6.4-4.267-13.867-6.4-24.533-6.4c-5.333,0-13.867,2.133-23.467,5.333v-28.8l34.133-40.533h-55.467
		V297.6z"/>
	<path style="fill:#54C0EB;" d="M332.8,443.733c-24.533,0-42.667-8.533-55.467-24.533C265.6,402.133,259.2,379.733,259.2,352
		s6.4-50.133,18.133-67.2c11.733-17.067,30.933-24.533,55.467-24.533c24.533,0,42.667,8.533,55.467,24.533
		C400,301.867,406.4,324.267,406.4,352c0,27.733-6.4,50.133-18.133,67.2C375.467,435.2,357.333,443.733,332.8,443.733z
		 M306.133,309.333C300.8,320,297.6,334.933,297.6,352c0,18.133,3.2,32,8.533,42.667c5.333,10.667,13.867,16,25.6,16
		s20.267-5.333,26.667-16c5.333-10.667,8.533-25.6,8.533-42.667c0-18.133-3.2-32-8.533-42.667s-13.867-16-26.667-16
		C320,293.333,311.467,298.667,306.133,309.333z"/>
</g>
<g>
</g>
<g>
</g>
<g>
</g>
<g>
</g>
<g>
</g>
<g>
</g>
<g>
</g>
<g>
</g>
<g>
</g>
<g>
</g>
<g>
</g>
<g>
</g>
<g>
</g>
<g>
</g>
<g>
</g>
</svg>
