<?xml version="1.0" encoding="iso-8859-1"?>
<!-- Generator: Adobe Illustrator 19.0.0, SVG Export Plug-In . SVG Version: 6.00 Build 0)  -->
<svg version="1.1" id="Layer_1" xmlns="http://www.w3.org/2000/svg" xmlns:xlink="http://www.w3.org/1999/xlink" x="0px" y="0px"
	 viewBox="0 0 512 512" style="enable-background:new 0 0 512 512;" xml:space="preserve">
<circle style="fill:#40596B;" cx="256" cy="256" r="256"/>
<circle style="fill:#F2F2F2;" cx="256" cy="256" r="194.133"/>
<path style="opacity:0.1;fill:#231F20;enable-background:new    ;" d="M256,83.2c103.467,0,187.733,81.067,194.133,183.467
	c0-3.2,1.067-7.467,1.067-10.667c0-107.733-87.467-194.133-194.133-194.133c-108.8,0-195.2,86.4-195.2,194.133
	c0,3.2,0,7.467,1.067,10.667C68.267,164.267,152.533,83.2,256,83.2z"/>
<g>
	<circle style="fill:#84DBFF;" cx="256" cy="97.067" r="11.733"/>
	<circle style="fill:#84DBFF;" cx="256" cy="414.933" r="11.733"/>
	<circle style="fill:#84DBFF;" cx="414.933" cy="256" r="11.733"/>
	<circle style="fill:#84DBFF;" cx="107.733" cy="266.667" r="11.733"/>
</g>
<path style="fill:#FF7058;" d="M256,269.867c-3.2,0-7.467-1.067-9.6-4.267l-74.667-82.133c-5.333-5.333-4.267-13.867,1.067-19.2
	c5.333-5.333,13.867-4.267,19.2,1.067l74.667,82.133c5.333,5.333,4.267,13.867-1.067,19.2C262.4,267.733,259.2,269.867,256,269.867z
	"/>
<g>
	<path style="fill:#40596B;" d="M250.667,257.067l76.8-60.8c3.2-3.2,8.533-2.133,11.733,1.067s2.133,8.533-1.067,11.733l-76.8,60.8
		L250.667,257.067z"/>
	<path style="fill:#40596B;" d="M174.933,339.2c-1.067,0-1.067,0-2.133-1.067c-1.067-1.067-1.067-3.2,0-4.267l86.4-86.4
		c1.067-1.067,3.2-1.067,4.267,0c1.067,1.067,1.067,3.2,0,4.267l-86.4,86.4C176,339.2,176,339.2,174.933,339.2z"/>
	<circle style="fill:#40596B;" cx="256" cy="256" r="25.6"/>
</g>
<circle style="fill:#FFFFFF;" cx="256" cy="256" r="12.8"/>
<g>
</g>
<g>
</g>
<g>
</g>
<g>
</g>
<g>
</g>
<g>
</g>
<g>
</g>
<g>
</g>
<g>
</g>
<g>
</g>
<g>
</g>
<g>
</g>
<g>
</g>
<g>
</g>
<g>
</g>
</svg>
