<?xml version="1.0" encoding="iso-8859-1"?>
<!-- Generator: Adobe Illustrator 19.0.0, SVG Export Plug-In . SVG Version: 6.00 Build 0)  -->
<svg version="1.1" id="Capa_1" xmlns="http://www.w3.org/2000/svg" xmlns:xlink="http://www.w3.org/1999/xlink" x="0px" y="0px"
	 viewBox="0 0 512 512" style="enable-background:new 0 0 512 512;" xml:space="preserve">
<path style="fill:#CDD6E0;" d="M491.159,124.8h-71.467v341.333c0,25.6,20.267,45.867,45.867,45.867
	c25.6,0,45.867-20.267,45.867-45.867v-320C512.493,134.4,502.893,124.8,491.159,124.8z"/>
<path style="fill:#F2F2F2;" d="M419.693,466.133v-444.8C419.693,9.6,410.093,0,398.359,0H21.826C10.093,0,0.493,9.6,0.493,21.333
	v444.8c0,25.6,20.267,45.867,45.867,45.867h419.2C441.026,512,419.693,491.733,419.693,466.133z"/>
<g>
	<path style="fill:#FF7058;" d="M108.226,40.533h16v72.533h-16l-35.2-44.8v45.867h-16v-73.6h14.933l35.2,46.933V40.533H108.226z"/>
	<path style="fill:#FF7058;" d="M194.626,40.533v14.933h-36.267V70.4h33.067v13.867h-33.067V99.2h37.333v13.867h-53.333V40.533
		H194.626z"/>
	<path style="fill:#FF7058;" d="M233.026,83.2l12.8-42.667h17.067l12.8,41.6l14.933-41.6h17.067l-25.6,72.533h-11.733l-16-50.133
		l-16,50.133h-11.733l-25.6-72.533h17.067L233.026,83.2z"/>
	<path style="fill:#FF7058;" d="M333.293,55.467c-2.133,1.067-2.133,3.2-2.133,5.333c0,2.133,0,3.2,2.133,5.333
		c2.133,1.067,6.4,3.2,12.8,4.267c7.467,1.067,12.8,4.267,17.067,7.467c4.267,3.2,5.333,8.533,5.333,14.933
		c0,6.4-2.133,11.733-7.467,16c-5.333,4.267-11.733,6.4-19.2,6.4c-11.733,0-22.4-4.267-30.933-12.8l9.6-12.8
		c7.467,6.4,14.933,10.667,21.333,10.667c3.2,0,5.333-1.067,7.467-2.133s2.133-3.2,2.133-5.333s-1.067-4.267-3.2-5.333
		s-5.333-2.133-10.667-4.267c-8.533-2.133-14.933-4.267-18.133-7.467c-4.267-3.2-6.4-8.533-6.4-14.933s2.133-11.733,7.467-16
		s10.667-5.333,18.133-5.333c5.333,0,9.6,1.067,14.933,2.133c5.333,2.133,9.6,4.267,12.8,7.467L357.826,60.8
		c-5.333-5.333-11.733-7.467-18.133-7.467C336.493,53.333,334.359,54.4,333.293,55.467z"/>
</g>
<rect x="43.159" y="177.067" style="fill:#CDD6E0;" width="148.267" height="24.533"/>
<rect x="43.159" y="130.133" style="fill:#40596B;" width="333.867" height="13.867"/>
<g>
	<rect x="43.159" y="243.2" style="fill:#CDD6E0;" width="148.267" height="24.533"/>
	<rect x="43.159" y="310.4" style="fill:#CDD6E0;" width="148.267" height="24.533"/>
	<rect x="43.159" y="377.6" style="fill:#CDD6E0;" width="333.867" height="24.533"/>
	<rect x="43.159" y="444.8" style="fill:#CDD6E0;" width="333.867" height="24.533"/>
</g>
<rect x="219.159" y="177.067" style="fill:#84DBFF;" width="158.933" height="158.933"/>
<g>
</g>
<g>
</g>
<g>
</g>
<g>
</g>
<g>
</g>
<g>
</g>
<g>
</g>
<g>
</g>
<g>
</g>
<g>
</g>
<g>
</g>
<g>
</g>
<g>
</g>
<g>
</g>
<g>
</g>
</svg>
