<?xml version="1.0" encoding="iso-8859-1"?>
<!-- Generator: Adobe Illustrator 19.0.0, SVG Export Plug-In . SVG Version: 6.00 Build 0)  -->
<svg version="1.1" id="Capa_1" xmlns="http://www.w3.org/2000/svg" xmlns:xlink="http://www.w3.org/1999/xlink" x="0px" y="0px"
	 viewBox="0 0 512 512" style="enable-background:new 0 0 512 512;" xml:space="preserve">
<path style="fill:#40596B;" d="M358.4,206.933c-61.867,81.067-130.133,91.733-205.867,0l0,0c14.933-29.867,23.467-64,23.467-98.133
	V80c0-43.733,36.267-80,80-80l0,0c43.733,0,80,36.267,80,80v29.867c0,33.067,7.467,66.133,22.4,96V206.933z"/>
<path style="fill:#3DC9AE;" d="M369.067,210.133c-73.6-32-148.267-33.067-226.133,0c-12.8,5.333-21.333,18.133-21.333,33.067
	v114.133h268.8V243.2C390.4,228.267,381.867,215.467,369.067,210.133z"/>
<path style="fill:#F8B64C;" d="M297.6,190.933V144h-82.133v46.933c0,22.4,41.6,41.6,41.6,41.6l0,0
	C256,231.467,297.6,213.333,297.6,190.933z"/>
<path style="fill:#FFD15C;" d="M308.267,73.6c-19.2,0-36.267-4.267-50.133-12.8c-14.933,18.133-36.267,30.933-65.067,33.067
	c0,4.267-1.067,8.533-1.067,13.867C192,154.667,220.8,192,256,192s64-38.4,64-84.267c0-11.733-2.133-23.467-5.333-34.133
	C312.533,73.6,310.4,73.6,308.267,73.6z"/>
<g>
	<path style="fill:#FFFFFF;" d="M297.6,188.8c0,0-14.933,30.933-41.6,42.667L285.867,256L304,203.733L297.6,188.8z"/>
	<path style="fill:#FFFFFF;" d="M214.4,188.8c0,0,14.933,30.933,41.6,42.667L226.133,256L208,203.733L214.4,188.8z"/>
</g>
<path style="fill:#CDD6E0;" d="M492.8,318.933H19.2c-10.667,0-19.2,8.533-19.2,19.2s8.533,19.2,19.2,19.2h473.6
	c10.667,0,19.2-8.533,19.2-19.2C512,327.467,503.467,318.933,492.8,318.933z"/>
<rect x="36.267" y="357.333" style="fill:#F2F2F2;" width="440.533" height="154.667"/>
<g>
</g>
<g>
</g>
<g>
</g>
<g>
</g>
<g>
</g>
<g>
</g>
<g>
</g>
<g>
</g>
<g>
</g>
<g>
</g>
<g>
</g>
<g>
</g>
<g>
</g>
<g>
</g>
<g>
</g>
</svg>
